<svg xmlns="http://www.w3.org/2000/svg" xmlns:xlink="http://www.w3.org/1999/xlink" version="1.1" width="684" height="239" preserveAspectRatio="none" id="svg3025"><metadata id="metadata3"><mapobjects>image/svg+xml<generatedinfo datetime="2019-10-29T19:32:20.7190274Z" /><processprocedure svgid="Process_RND599582228" type="ProcessLink" ispartofmergedprocess="false" processuniqueid="c54611a6-792c-4237-adfd-191f80813770" tooltip="Analyse Change/Application Requirements" /><processprocedure svgid="Process_RND1513721550" type="ProcessLink" ispartofmergedprocess="false" processuniqueid="37ae6a4e-2668-41f2-86bb-ef044c5654cd" tooltip="Develop Change/Application" /><processprocedure svgid="Process_RND1887966491" type="ProcessLink" ispartofmergedprocess="false" processuniqueid="b930dc57-779c-462f-83ba-2ae8b7962de7" tooltip="Receive &amp; Process an IT Change Request" /><processprocedure svgid="Process_RND636316242" type="ProcessLink" ispartofmergedprocess="false" processuniqueid="83508eac-3f58-40c3-9c7d-2a8ce2d9fd65" tooltip="Release Change/Application" /><processprocedure svgid="Process_RND1897192868" type="ProcessLink" ispartofmergedprocess="false" processuniqueid="36c4b810-cdd0-4928-bf86-b3d07d63d148" tooltip="Test and Accept Change/Application" /></mapobjects></metadata><defs id="defs3061"><g fill="Black" visibility="visible" fill-opacity="1" stroke-width="1" stroke-miterlimit="4" stroke-opacity="1" opacity="1" id="icon-users"><path d="M8.2 7.5 C8.2 7.5 4.7 7.5 3.4 10.7 C3.4 10.7 5.599999 11.6 8.2 11.6 C10.8 11.6 13 10.7 13 10.7 C11.7 7.5 8.2 7.5 8.2 7.5 z M8.2 7 C9.5 7 10.4 5.6 10.4 3.3 C10.4 1 8.2 1 8.2 1 C8.2 1 6 1 6 3.3 C6 5.6 6.9 7 8.2 7 z M4 5.4 C4.4 5.4 4.8 5.2 5.1 4.9 C5 4.4 4.9 3.9 4.9 3.3 C4.9 2.4 5.2 1.9 5.6 1.5 C5.2 0.5 4 0.5 4 0.5 C4 0.5 2.2 0.5 2.2 2.4 C2.2 4.3 2.9 5.4 4 5.4 L4 5.4 z M5.7 6.9 L5.6 6.2 C4.7 5.8 4 5.8 4 5.8 C4 5.8 1.1 5.8 0 8.5 C0 8.5 1.4 9.1 3.2 9.2 C4.8 7.5 5.7 6.9 5.7 6.9 L5.7 6.9 z" visibility="visible" fill="#414141" fill-opacity="1" stroke-width="1" stroke-miterlimit="4" stroke-opacity="1" opacity="1" id="path10100" /></g><g fill="Black" visibility="visible" fill-opacity="1" stroke-width="1" stroke-miterlimit="4" stroke-opacity="1" opacity="1" id="icon-cogs"><path d="M8.9 13 L6.6 13 L6.3 11.7 C5.8 11.5 5.3 11.2 4.8 10.8 L3.5 11.2 L2.5 9.2 L3.5 8.3 C3.5 8.1 3.5 7.9 3.5 7.7 C3.5 7.5 3.5 7.3 3.5 7.1 L2.5 6.2 L3.5 4.2 L4.8 4.6 C5.2 4.2 5.7 3.9 6.3 3.7 L6.6 2.4 L8.8 2.4 L9.1 3.7 C9.6 3.9 10.1 4.2 10.6 4.6 L11.9 4.2 L12.9 6.2 L11.9 7.1 C11.9 7.3 11.9 7.5 11.9 7.7 C11.9 7.9 11.9 8.1 11.9 8.3 L12.9 9.2 L11.9 11.2 L10.6 10.8 C10.2 11.2 9.700001 11.5 9.1 11.7 L8.9 13 z M7.3 12.2 L8.2 12.2 L8.4 11.4 C8.4 11.2 8.599999 11 8.799999 10.9 C9.299999 10.7 9.699999 10.5 10.1 10.1 C10.3 9.9 10.5 9.9 10.7 9.9 L11.5 10.1 L11.9 9.299999 L11.3 8.799999 C11.1 8.699999 11.1 8.4 11.1 8.199999 C11.1 7.999999 11.2 7.799999 11.2 7.599999 C11.2 7.399999 11.2 7.199999 11.1 6.999999 C11.1 6.799999 11.1 6.499999 11.3 6.399999 L11.9 6 L11.5 5.2 L10.7 5.4 C10.5 5.5 10.2 5.4 10.1 5.2 C9.7 4.9 9.3 4.6 8.8 4.5 C8.6 4.4 8.4 4.2 8.4 4 L8.2 3.2 L7.3 3.2 L7.1 4 C7.1 4.2 6.9 4.4 6.7 4.5 C6.2 4.7 5.7 4.9 5.4 5.3 C5.2 5.4 5 5.5 4.8 5.4 L4 5.2 L3.6 6 L4.3 6.6 C4.4 6.7 4.4 6.8 4.4 7 C4.4 7.2 4.3 7.5 4.3 7.7 C4.3 7.9 4.3 8.2 4.4 8.4 C4.4 8.599999 4.4 8.7 4.2 8.9 L3.6 9.4 L4 10.2 L4.8 10 C5 9.9 5.2 10 5.4 10.2 C5.8 10.6 6.2 10.8 6.7 11 C6.9 11.1 7.1 11.2 7.1 11.5 L7.3 12.2 z M3.7 8.2 C3.7 8.2 3.7 8.2 3.7 8.2 L3.7 8.2 z M3.6 6.8 C3.6 6.8 3.6 6.8 3.6 6.8 C3.6 6.8 3.6 6.8 3.6 6.8 z M6.4 3.7 C6.4 3.7 6.4 3.7 6.4 3.7 C6.4 3.7 6.4 3.7 6.4 3.7 z" visibility="visible" fill="#414141" fill-opacity="1" stroke-width="1" stroke-miterlimit="4" stroke-opacity="1" opacity="1" id="path10101" /><path d="M7.7 9.9 C6.5 9.9 5.5 8.9 5.5 7.7 C5.5 6.5 6.5 5.5 7.7 5.5 C8.9 5.5 9.9 6.5 9.9 7.7 C9.9 8.9 9 9.9 7.7 9.9 z M7.7 6.3 C7 6.3 6.3 6.9 6.3 7.7 C6.3 8.5 7 9.1 7.7 9.1 C8.4 9.1 9.099999 8.5 9.099999 7.7 C9.099999 6.900001 8.5 6.3 7.7 6.3 z" visibility="visible" fill="#414141" fill-opacity="1" stroke-width="1" stroke-miterlimit="4" stroke-opacity="1" opacity="1" id="path10102" /><path d="M1 8.7 L0 6.8 L1 5.9 C1 5.7 1 5.5 1 5.3 C1 5.1 1 4.9 1 4.7 L0 3.8 L1 1.9 L2.2 2.3 C2.6 1.9 3 1.6 3.5 1.4 L3.9 0 L6 0 L6.3 1.5 L5.5 1.7 L5.3 0.8 L4.5 0.8 L4.3 2 L4.1 2 C3.6 2.2 3.1 2.5 2.7 2.9 L2.5 3.1 L1.5 2.8 L1.1 3.6 L1.9 4.4 L1.9 4.6 C1.9 4.8 1.8 5.1 1.8 5.3 C1.8 5.5 1.8 5.8 1.9 6 L1.9 6.199999 L1.1 7 L1.5 7.8 L2.3 7.6 L2.5 8.400001 L1 8.7 z" visibility="visible" fill="#414141" fill-opacity="1" stroke-width="1" stroke-miterlimit="4" stroke-opacity="1" opacity="1" id="path10103" /></g><g fill="Black" visibility="visible" fill-opacity="1" stroke-width="1" stroke-miterlimit="4" stroke-opacity="1" opacity="1" id="icon-workflow"><path d="M12.97599 9.066056 L12.97599 11.69981 A0.2819232 0.2819232 0 0 1 12.70149 11.97432 L8.895525 11.97432 A0.2819232 0.2819232 0 0 1 8.62102 11.69981 L8.62102 11.69981 L8.62102 9.066056 A0.2819232 0.2819232 0 0 1 8.895525 8.791553 L10.12708 8.791553 L10.12708 7.048079 L2.596767 7.048079 L2.596767 8.791552 L3.984126 8.791552 A0.2745042 0.2745042 0 0 1 4.25863 9.066055 L4.25863 9.066055 L4.25863 11.69981 A0.2745042 0.2745042 0 0 1 3.984126 11.97432 L0.2746102 11.97432 A0.2670851 0.2670851 0 0 1 0.0001060249 11.69981 L0.0001060249 11.69981 L0.0001060249 9.066056 A0.2670851 0.2670851 0 0 1 0.2746102 8.791553 L1.973568 8.791553 L1.973568 6.973889 A0.5564274 0.5564274 0 0 1 2.529996 6.410043 L6.061455 6.410043 L6.061455 3.182764 L4.533134 3.182764 A0.2819232 0.2819232 0 0 1 4.25863 2.90826 L4.25863 0.2745041 A0.2819232 0.2819232 0 0 1 4.533134 0 L8.24265 0 A0.2819232 0.2819232 0 0 1 8.517154 0.2745041 L8.517154 0.2745041 L8.517154 2.90826 A0.2819232 0.2819232 0 0 1 8.24265 3.182764 L6.669815 3.182764 L6.669815 6.410043 L10.20127 6.410043 A0.5564274 0.5564274 0 0 1 10.75028 6.966471 L10.75028 7.789983 L10.75028 7.789983 L10.75028 8.776714 L12.68665 8.776714 A0.2819232 0.2819232 0 0 1 12.96857 9.051218 z" visibility="visible" fill="#414141" fill-opacity="1" stroke-width="1" stroke-miterlimit="4" stroke-opacity="1" opacity="1" id="path10104" /></g><marker refX="0" refY="0" orient="auto" overflow="visible" visibility="visible" fill="Black" fill-opacity="1" stroke-width="1" stroke-miterlimit="4" stroke-opacity="1" opacity="1" id="Arrow2Lstart"><path d="M8.718588 4.033735 L-2.207289 0.01601326 L8.718589 -4.001708 C6.97309 -1.629647 6.983148 1.615744 8.718588 4.033735 z" visibility="visible" fill="#414141" stroke="#414141" fill-rule="evenodd" fill-opacity="1" stroke-width="0.625" stroke-linejoin="Round" stroke-miterlimit="4" stroke-opacity="1" opacity="1" transform="scale(0.6, 0.6) translate(1, 0)" id="path3989" /></marker><marker refX="0" refY="0" orient="auto" overflow="visible" visibility="visible" fill="Black" fill-opacity="1" stroke-width="1" stroke-miterlimit="4" stroke-opacity="1" opacity="1" id="Arrow2Lend"><path d="M8.718588 4.033735 L-2.207289 0.01601326 L8.718589 -4.001708 C6.97309 -1.629647 6.983148 1.615744 8.718588 4.033735 z" visibility="visible" fill="#414141" stroke="#414141" fill-rule="evenodd" fill-opacity="1" stroke-width="0.625" stroke-linejoin="Round" stroke-miterlimit="4" stroke-opacity="1" opacity="1" transform="scale(0.6, 0.6) rotate(180, 0, 0) translate(1, 0)" id="path3992" /></marker><clipPath id="clipPath3799"><path d="M-0.9801534 -1.108917 L109.3664 -1.024935 L127.5881 16.05515 L127.7841 77.78412 L-0.9801483 77.78412 z" visibility="visible" fill="#0294DB" fill-opacity="1" stroke-width="1" stroke-miterlimit="4" stroke-opacity="1" opacity="1" id="path3801" /></clipPath><clipPath id="clipProcessInner"><path d="M-0.9801534 -0.98 L106.279 -0.4900767 L127.5391 19.87353 L127.7841 78.80906 L-0.9801483 78.80906 z" visibility="visible" fill="#0294DB" fill-opacity="1" stroke-width="1" stroke-miterlimit="4" stroke-opacity="1" opacity="1" id="path3805" /></clipPath><linearGradient x1="110.7358" y1="15.98698" x2="124.352" y2="2.733311" id="colourGradientProcessFoldover"><stop offset="0%" stop-color="#24A6E6" stop-opacity="1" id="stop22" /><stop offset="100%" stop-color="#3AB6E9" stop-opacity="1" id="stop24" /></linearGradient><linearGradient x1="0" y1="0" x2="1" y2="0" gradientUnits="objectBoundingBox" id="colourActivityHead"><stop offset="0%" stop-color="#24A6E6" stop-opacity="1" id="stop27" /><stop offset="100%" stop-color="#3AB6E9" stop-opacity="1" id="stop29" /></linearGradient><linearGradient x1="0" y1="0" x2="1" y2="0" gradientUnits="objectBoundingBox" id="colourActivityHeadMerged"><stop offset="0%" stop-color="#404241" stop-opacity="1" id="stop3008" /><stop offset="100%" stop-color="#8E9396" stop-opacity="1" id="stop3010" /></linearGradient><linearGradient x1="103.7747" y1="2.904972" x2="115.0685" y2="2.904972" id="colourRiskSymbol"><stop offset="0%" stop-color="#C40000" stop-opacity="1" id="stop4079" /><stop offset="100%" stop-color="Red" stop-opacity="1" id="stop4077" /></linearGradient><clipPath id="clipPath6131"><path d="M67.07462 78.34183 L126.1576 43.25883 C127.7206 41.69583 127.7206 39.16383 126.1576 37.60183 L67.07462 2.51883 C65.51262 0.95683 62.98061 0.95683 61.41761 2.51883 L2.334614 37.60183 C0.7726138 39.16383 0.7726138 41.69583 2.334614 43.25883 L61.41761 78.34183 C62.98061 79.90382 65.51261 79.90382 67.07462 78.34183 z" display="inline" visibility="visible" fill="none" stroke="#B0B0B4" fill-opacity="1" stroke-width="1" stroke-miterlimit="4" stroke-opacity="1" opacity="1" id="path6133" /></clipPath></defs><g fill="Black" display="inline" visibility="visible" fill-opacity="1" stroke-width="1" stroke-miterlimit="4" stroke-opacity="1" opacity="1" id="TemplateItems" /><g fill="Black" visibility="visible" fill-opacity="1" stroke-width="1" stroke-miterlimit="4" stroke-opacity="1" opacity="1" transform="translate(12, 7)" id="GeneratedMap"><g fill="Black" visibility="visible" fill-opacity="1" stroke-width="1" stroke-miterlimit="4" stroke-opacity="1" opacity="1" id="Background"><rect x="0" y="0" width="672" height="232" rx="8" ry="8" visibility="visible" fill="#DCDCDC" fill-opacity="0.86" stroke-width="1" stroke-miterlimit="4" stroke-opacity="1" opacity="1" id="SwimlaneBackground" /></g><g fill="Black" visibility="visible" fill-opacity="1" stroke-width="1" stroke-miterlimit="4" stroke-opacity="1" opacity="1" id="ProcessMap"><g fill="Black" display="inline" visibility="visible" fill-opacity="1" stroke-width="1" stroke-miterlimit="4" stroke-opacity="1" opacity="1" transform="translate(12, 22)" id="Process_RND599582228"><g fill="Black" clip-path="url(#clipProcessInner)" visibility="visible" fill-opacity="1" stroke-width="1" stroke-miterlimit="4" stroke-opacity="1" opacity="1" id="ProcessInner_RND599582228"><rect x="0" y="0" width="127" height="77" rx="5" ry="5" visibility="visible" fill="#FFFFFF" stroke="#BBBABA" fill-opacity="1" stroke-width="1" stroke-miterlimit="4" stroke-opacity="1" opacity="1" id="BackgroundProcess_RND599582228" /><g fill="Black" display="none" visibility="visible" fill-opacity="1" stroke-width="1" stroke-miterlimit="4" stroke-opacity="1" opacity="1" transform="matrix(0.7523217, 0, 0, 0.6551414, 27.52959, 62.1265)" id="btnExpandProcess_RND599582228"><g fill="Black" clip-path="url(#clipProcessInner)" visibility="visible" fill-opacity="1" stroke-width="1" stroke-miterlimit="4" stroke-opacity="1" opacity="1" transform="matrix(0.1659139, 0, 0, 0.2227319, 106.583, -0.7617227)" id="ExpandProcessInner_RND599582228"><rect x="0" y="0" width="127" height="77" rx="5" ry="5" visibility="visible" fill="#FFFFFF" stroke="#BBBABA" fill-opacity="1" stroke-width="18.00728" stroke-linejoin="Round" stroke-miterlimit="4" stroke-opacity="1" opacity="1" id="rect3058_RND599582228" /><rect x="97.29518" y="-50.03258" width="60" height="77" rx="5" ry="5" visibility="visible" fill="url(#colourGradientProcessFoldover)" fill-opacity="1" stroke-width="1" stroke-miterlimit="4" stroke-opacity="1" opacity="1" id="rectFoldover-1_RND599582228" /></g><path d="M114.5414 11.22973 L118.2261 7.579146 L114.5113 3.950707 L116.1911 2.286395 L121.6314 7.675394 L116.3184 12.93918 L114.5414 11.22973 z" display="inline" visibility="visible" fill="url(#colourGradientProcessFoldover)" fill-opacity="1" stroke-width="1" stroke-miterlimit="4" stroke-opacity="1" opacity="1" id="path3061_RND599582228" /></g><g fill="Black" display="none" visibility="visible" fill-opacity="1" stroke-width="1" stroke-miterlimit="4" stroke-opacity="1" opacity="1" transform="matrix(0.7517621, 0, 0, 0.6518493, 27.655, 62.11116)" id="btnContractProcess_RND599582228"><g fill="Black" clip-path="url(#clipProcessInner)" visibility="visible" fill-opacity="1" stroke-width="1" stroke-miterlimit="4" stroke-opacity="1" opacity="1" transform="matrix(0.1659139, 0, 0, 0.2227319, 106.583, -0.7617227)" id="ContractProcessInner_RND599582228"><rect x="0" y="0" width="127" height="77" rx="5" ry="5" visibility="visible" fill="#FFFFFF" stroke="#BBBABA" fill-opacity="1" stroke-width="18.00728" stroke-linejoin="Round" stroke-miterlimit="4" stroke-opacity="1" opacity="1" id="rect3058-8-4_RND599582228" /><rect x="97.29518" y="-50.03258" width="60" height="77" rx="5" ry="5" visibility="visible" fill="#414141" fill-opacity="1" stroke-width="1" stroke-miterlimit="4" stroke-opacity="1" opacity="1" id="rect4020_RND599582228" /></g><path d="M119.9814 11.22973 L116.2967 7.579146 L120.0115 3.950707 L118.3316 2.286395 L112.8914 7.675394 L118.2044 12.93918 L119.9814 11.22973 z" display="inline" visibility="visible" fill="#414141" fill-opacity="1" stroke-width="1" stroke-miterlimit="4" stroke-opacity="1" opacity="1" id="path3061-4-4_RND599582228" /></g><text text-anchor="middle" x="63" y="33.21814" font-family="Arial" font-size="11px" font-weight="bold" fill="#0294DB" pointer-events="none" visibility="visible" fill-opacity="1" stroke-width="1" stroke-miterlimit="4" stroke-opacity="1" opacity="1" id="text81_RND599582228"><tspan x="63" y="33.21814" id="tspan3901_RND599582228">Analyse</tspan><tspan x="63" y="45.31814" id="tspan3903_RND599582228">Change/Application</tspan><tspan x="63" y="57.41814" id="tspan3905_RND599582228">Requirements</tspan><tspan x="63" y="69.51814" id="tspan3907_RND599582228" /></text><text x="6" y="14" font-family="Arial" font-size="11px" font-weight="bold" fill="#B0B0B4" display="inline" visibility="visible" fill-opacity="1" stroke-width="1" stroke-miterlimit="4" stroke-opacity="1" opacity="1" id="text119-2_RND599582228"><tspan x="6" y="14" id="tspan6223-4_RND599582228">PROCESS</tspan></text><rect x="106.7326" y="-57.51394" width="60" height="77" rx="5" ry="5" visibility="visible" fill="url(#colourGradientProcessFoldover)" stroke="#BBBABA" fill-opacity="1" stroke-width="1" stroke-miterlimit="4" stroke-opacity="1" opacity="1" id="rectFoldover_RND599582228" /></g></g><g fill="Black" display="inline" visibility="visible" fill-opacity="1" stroke-width="1" stroke-miterlimit="4" stroke-opacity="1" opacity="1" transform="translate(171, 22)" id="Process_RND1513721550"><g fill="Black" clip-path="url(#clipProcessInner)" visibility="visible" fill-opacity="1" stroke-width="1" stroke-miterlimit="4" stroke-opacity="1" opacity="1" id="ProcessInner_RND1513721550"><rect x="0" y="0" width="127" height="77" rx="5" ry="5" visibility="visible" fill="#FFFFFF" stroke="#BBBABA" fill-opacity="1" stroke-width="1" stroke-miterlimit="4" stroke-opacity="1" opacity="1" id="BackgroundProcess_RND1513721550" /><g fill="Black" display="none" visibility="visible" fill-opacity="1" stroke-width="1" stroke-miterlimit="4" stroke-opacity="1" opacity="1" transform="matrix(0.7523217, 0, 0, 0.6551414, 27.52959, 62.1265)" id="btnExpandProcess_RND1513721550"><g fill="Black" clip-path="url(#clipProcessInner)" visibility="visible" fill-opacity="1" stroke-width="1" stroke-miterlimit="4" stroke-opacity="1" opacity="1" transform="matrix(0.1659139, 0, 0, 0.2227319, 106.583, -0.7617227)" id="ExpandProcessInner_RND1513721550"><rect x="0" y="0" width="127" height="77" rx="5" ry="5" visibility="visible" fill="#FFFFFF" stroke="#BBBABA" fill-opacity="1" stroke-width="18.00728" stroke-linejoin="Round" stroke-miterlimit="4" stroke-opacity="1" opacity="1" id="rect3058_RND1513721550" /><rect x="97.29518" y="-50.03258" width="60" height="77" rx="5" ry="5" visibility="visible" fill="url(#colourGradientProcessFoldover)" fill-opacity="1" stroke-width="1" stroke-miterlimit="4" stroke-opacity="1" opacity="1" id="rectFoldover-1_RND1513721550" /></g><path d="M114.5414 11.22973 L118.2261 7.579146 L114.5113 3.950707 L116.1911 2.286395 L121.6314 7.675394 L116.3184 12.93918 L114.5414 11.22973 z" display="inline" visibility="visible" fill="url(#colourGradientProcessFoldover)" fill-opacity="1" stroke-width="1" stroke-miterlimit="4" stroke-opacity="1" opacity="1" id="path3061_RND1513721550" /></g><g fill="Black" display="none" visibility="visible" fill-opacity="1" stroke-width="1" stroke-miterlimit="4" stroke-opacity="1" opacity="1" transform="matrix(0.7517621, 0, 0, 0.6518493, 27.655, 62.11116)" id="btnContractProcess_RND1513721550"><g fill="Black" clip-path="url(#clipProcessInner)" visibility="visible" fill-opacity="1" stroke-width="1" stroke-miterlimit="4" stroke-opacity="1" opacity="1" transform="matrix(0.1659139, 0, 0, 0.2227319, 106.583, -0.7617227)" id="ContractProcessInner_RND1513721550"><rect x="0" y="0" width="127" height="77" rx="5" ry="5" visibility="visible" fill="#FFFFFF" stroke="#BBBABA" fill-opacity="1" stroke-width="18.00728" stroke-linejoin="Round" stroke-miterlimit="4" stroke-opacity="1" opacity="1" id="rect3058-8-4_RND1513721550" /><rect x="97.29518" y="-50.03258" width="60" height="77" rx="5" ry="5" visibility="visible" fill="#414141" fill-opacity="1" stroke-width="1" stroke-miterlimit="4" stroke-opacity="1" opacity="1" id="rect4020_RND1513721550" /></g><path d="M119.9814 11.22973 L116.2967 7.579146 L120.0115 3.950707 L118.3316 2.286395 L112.8914 7.675394 L118.2044 12.93918 L119.9814 11.22973 z" display="inline" visibility="visible" fill="#414141" fill-opacity="1" stroke-width="1" stroke-miterlimit="4" stroke-opacity="1" opacity="1" id="path3061-4-4_RND1513721550" /></g><text text-anchor="middle" x="63" y="33.21814" font-family="Arial" font-size="11px" font-weight="bold" fill="#0294DB" pointer-events="none" visibility="visible" fill-opacity="1" stroke-width="1" stroke-miterlimit="4" stroke-opacity="1" opacity="1" id="text81_RND1513721550"><tspan x="63" y="33.21814" id="tspan3901_RND1513721550" /><tspan x="63" y="45.31814" id="tspan3903_RND1513721550">Develop</tspan><tspan x="63" y="57.41814" id="tspan3905_RND1513721550">Change/Application</tspan><tspan x="63" y="69.51814" id="tspan3907_RND1513721550" /></text><text x="6" y="14" font-family="Arial" font-size="11px" font-weight="bold" fill="#B0B0B4" display="inline" visibility="visible" fill-opacity="1" stroke-width="1" stroke-miterlimit="4" stroke-opacity="1" opacity="1" id="text119-2_RND1513721550"><tspan x="6" y="14" id="tspan6223-4_RND1513721550">PROCESS</tspan></text><rect x="106.7326" y="-57.51394" width="60" height="77" rx="5" ry="5" visibility="visible" fill="url(#colourGradientProcessFoldover)" stroke="#BBBABA" fill-opacity="1" stroke-width="1" stroke-miterlimit="4" stroke-opacity="1" opacity="1" id="rectFoldover_RND1513721550" /></g></g><g fill="Black" display="inline" visibility="visible" fill-opacity="1" stroke-width="1" stroke-miterlimit="4" stroke-opacity="1" opacity="1" transform="translate(330, 22)" id="Process_RND1887966491"><g fill="Black" clip-path="url(#clipProcessInner)" visibility="visible" fill-opacity="1" stroke-width="1" stroke-miterlimit="4" stroke-opacity="1" opacity="1" id="ProcessInner_RND1887966491"><rect x="0" y="0" width="127" height="77" rx="5" ry="5" visibility="visible" fill="#FFFFFF" stroke="#BBBABA" fill-opacity="1" stroke-width="1" stroke-miterlimit="4" stroke-opacity="1" opacity="1" id="BackgroundProcess_RND1887966491" /><g fill="Black" display="none" visibility="visible" fill-opacity="1" stroke-width="1" stroke-miterlimit="4" stroke-opacity="1" opacity="1" transform="matrix(0.7523217, 0, 0, 0.6551414, 27.52959, 62.1265)" id="btnExpandProcess_RND1887966491"><g fill="Black" clip-path="url(#clipProcessInner)" visibility="visible" fill-opacity="1" stroke-width="1" stroke-miterlimit="4" stroke-opacity="1" opacity="1" transform="matrix(0.1659139, 0, 0, 0.2227319, 106.583, -0.7617227)" id="ExpandProcessInner_RND1887966491"><rect x="0" y="0" width="127" height="77" rx="5" ry="5" visibility="visible" fill="#FFFFFF" stroke="#BBBABA" fill-opacity="1" stroke-width="18.00728" stroke-linejoin="Round" stroke-miterlimit="4" stroke-opacity="1" opacity="1" id="rect3058_RND1887966491" /><rect x="97.29518" y="-50.03258" width="60" height="77" rx="5" ry="5" visibility="visible" fill="url(#colourGradientProcessFoldover)" fill-opacity="1" stroke-width="1" stroke-miterlimit="4" stroke-opacity="1" opacity="1" id="rectFoldover-1_RND1887966491" /></g><path d="M114.5414 11.22973 L118.2261 7.579146 L114.5113 3.950707 L116.1911 2.286395 L121.6314 7.675394 L116.3184 12.93918 L114.5414 11.22973 z" display="inline" visibility="visible" fill="url(#colourGradientProcessFoldover)" fill-opacity="1" stroke-width="1" stroke-miterlimit="4" stroke-opacity="1" opacity="1" id="path3061_RND1887966491" /></g><g fill="Black" display="none" visibility="visible" fill-opacity="1" stroke-width="1" stroke-miterlimit="4" stroke-opacity="1" opacity="1" transform="matrix(0.7517621, 0, 0, 0.6518493, 27.655, 62.11116)" id="btnContractProcess_RND1887966491"><g fill="Black" clip-path="url(#clipProcessInner)" visibility="visible" fill-opacity="1" stroke-width="1" stroke-miterlimit="4" stroke-opacity="1" opacity="1" transform="matrix(0.1659139, 0, 0, 0.2227319, 106.583, -0.7617227)" id="ContractProcessInner_RND1887966491"><rect x="0" y="0" width="127" height="77" rx="5" ry="5" visibility="visible" fill="#FFFFFF" stroke="#BBBABA" fill-opacity="1" stroke-width="18.00728" stroke-linejoin="Round" stroke-miterlimit="4" stroke-opacity="1" opacity="1" id="rect3058-8-4_RND1887966491" /><rect x="97.29518" y="-50.03258" width="60" height="77" rx="5" ry="5" visibility="visible" fill="#414141" fill-opacity="1" stroke-width="1" stroke-miterlimit="4" stroke-opacity="1" opacity="1" id="rect4020_RND1887966491" /></g><path d="M119.9814 11.22973 L116.2967 7.579146 L120.0115 3.950707 L118.3316 2.286395 L112.8914 7.675394 L118.2044 12.93918 L119.9814 11.22973 z" display="inline" visibility="visible" fill="#414141" fill-opacity="1" stroke-width="1" stroke-miterlimit="4" stroke-opacity="1" opacity="1" id="path3061-4-4_RND1887966491" /></g><text text-anchor="middle" x="63" y="33.21814" font-family="Arial" font-size="11px" font-weight="bold" fill="#0294DB" pointer-events="none" visibility="visible" fill-opacity="1" stroke-width="1" stroke-miterlimit="4" stroke-opacity="1" opacity="1" id="text81_RND1887966491"><tspan x="63" y="33.21814" id="tspan3901_RND1887966491" /><tspan x="63" y="45.31814" id="tspan3903_RND1887966491">Receive &amp; Process an</tspan><tspan x="63" y="57.41814" id="tspan3905_RND1887966491">IT Change Request</tspan><tspan x="63" y="69.51814" id="tspan3907_RND1887966491" /></text><text x="6" y="14" font-family="Arial" font-size="11px" font-weight="bold" fill="#B0B0B4" display="inline" visibility="visible" fill-opacity="1" stroke-width="1" stroke-miterlimit="4" stroke-opacity="1" opacity="1" id="text119-2_RND1887966491"><tspan x="6" y="14" id="tspan6223-4_RND1887966491">PROCESS</tspan></text><rect x="106.7326" y="-57.51394" width="60" height="77" rx="5" ry="5" visibility="visible" fill="url(#colourGradientProcessFoldover)" stroke="#BBBABA" fill-opacity="1" stroke-width="1" stroke-miterlimit="4" stroke-opacity="1" opacity="1" id="rectFoldover_RND1887966491" /></g></g><g fill="Black" display="inline" visibility="visible" fill-opacity="1" stroke-width="1" stroke-miterlimit="4" stroke-opacity="1" opacity="1" transform="translate(489, 22)" id="Process_RND636316242"><g fill="Black" clip-path="url(#clipProcessInner)" visibility="visible" fill-opacity="1" stroke-width="1" stroke-miterlimit="4" stroke-opacity="1" opacity="1" id="ProcessInner_RND636316242"><rect x="0" y="0" width="127" height="77" rx="5" ry="5" visibility="visible" fill="#FFFFFF" stroke="#BBBABA" fill-opacity="1" stroke-width="1" stroke-miterlimit="4" stroke-opacity="1" opacity="1" id="BackgroundProcess_RND636316242" /><g fill="Black" display="none" visibility="visible" fill-opacity="1" stroke-width="1" stroke-miterlimit="4" stroke-opacity="1" opacity="1" transform="matrix(0.7523217, 0, 0, 0.6551414, 27.52959, 62.1265)" id="btnExpandProcess_RND636316242"><g fill="Black" clip-path="url(#clipProcessInner)" visibility="visible" fill-opacity="1" stroke-width="1" stroke-miterlimit="4" stroke-opacity="1" opacity="1" transform="matrix(0.1659139, 0, 0, 0.2227319, 106.583, -0.7617227)" id="ExpandProcessInner_RND636316242"><rect x="0" y="0" width="127" height="77" rx="5" ry="5" visibility="visible" fill="#FFFFFF" stroke="#BBBABA" fill-opacity="1" stroke-width="18.00728" stroke-linejoin="Round" stroke-miterlimit="4" stroke-opacity="1" opacity="1" id="rect3058_RND636316242" /><rect x="97.29518" y="-50.03258" width="60" height="77" rx="5" ry="5" visibility="visible" fill="url(#colourGradientProcessFoldover)" fill-opacity="1" stroke-width="1" stroke-miterlimit="4" stroke-opacity="1" opacity="1" id="rectFoldover-1_RND636316242" /></g><path d="M114.5414 11.22973 L118.2261 7.579146 L114.5113 3.950707 L116.1911 2.286395 L121.6314 7.675394 L116.3184 12.93918 L114.5414 11.22973 z" display="inline" visibility="visible" fill="url(#colourGradientProcessFoldover)" fill-opacity="1" stroke-width="1" stroke-miterlimit="4" stroke-opacity="1" opacity="1" id="path3061_RND636316242" /></g><g fill="Black" display="none" visibility="visible" fill-opacity="1" stroke-width="1" stroke-miterlimit="4" stroke-opacity="1" opacity="1" transform="matrix(0.7517621, 0, 0, 0.6518493, 27.655, 62.11116)" id="btnContractProcess_RND636316242"><g fill="Black" clip-path="url(#clipProcessInner)" visibility="visible" fill-opacity="1" stroke-width="1" stroke-miterlimit="4" stroke-opacity="1" opacity="1" transform="matrix(0.1659139, 0, 0, 0.2227319, 106.583, -0.7617227)" id="ContractProcessInner_RND636316242"><rect x="0" y="0" width="127" height="77" rx="5" ry="5" visibility="visible" fill="#FFFFFF" stroke="#BBBABA" fill-opacity="1" stroke-width="18.00728" stroke-linejoin="Round" stroke-miterlimit="4" stroke-opacity="1" opacity="1" id="rect3058-8-4_RND636316242" /><rect x="97.29518" y="-50.03258" width="60" height="77" rx="5" ry="5" visibility="visible" fill="#414141" fill-opacity="1" stroke-width="1" stroke-miterlimit="4" stroke-opacity="1" opacity="1" id="rect4020_RND636316242" /></g><path d="M119.9814 11.22973 L116.2967 7.579146 L120.0115 3.950707 L118.3316 2.286395 L112.8914 7.675394 L118.2044 12.93918 L119.9814 11.22973 z" display="inline" visibility="visible" fill="#414141" fill-opacity="1" stroke-width="1" stroke-miterlimit="4" stroke-opacity="1" opacity="1" id="path3061-4-4_RND636316242" /></g><text text-anchor="middle" x="63" y="33.21814" font-family="Arial" font-size="11px" font-weight="bold" fill="#0294DB" pointer-events="none" visibility="visible" fill-opacity="1" stroke-width="1" stroke-miterlimit="4" stroke-opacity="1" opacity="1" id="text81_RND636316242"><tspan x="63" y="33.21814" id="tspan3901_RND636316242" /><tspan x="63" y="45.31814" id="tspan3903_RND636316242">Release</tspan><tspan x="63" y="57.41814" id="tspan3905_RND636316242">Change/Application</tspan><tspan x="63" y="69.51814" id="tspan3907_RND636316242" /></text><text x="6" y="14" font-family="Arial" font-size="11px" font-weight="bold" fill="#B0B0B4" display="inline" visibility="visible" fill-opacity="1" stroke-width="1" stroke-miterlimit="4" stroke-opacity="1" opacity="1" id="text119-2_RND636316242"><tspan x="6" y="14" id="tspan6223-4_RND636316242">PROCESS</tspan></text><rect x="106.7326" y="-57.51394" width="60" height="77" rx="5" ry="5" visibility="visible" fill="url(#colourGradientProcessFoldover)" stroke="#BBBABA" fill-opacity="1" stroke-width="1" stroke-miterlimit="4" stroke-opacity="1" opacity="1" id="rectFoldover_RND636316242" /></g></g><g fill="Black" display="inline" visibility="visible" fill-opacity="1" stroke-width="1" stroke-miterlimit="4" stroke-opacity="1" opacity="1" transform="translate(12, 131)" id="Process_RND1897192868"><g fill="Black" clip-path="url(#clipProcessInner)" visibility="visible" fill-opacity="1" stroke-width="1" stroke-miterlimit="4" stroke-opacity="1" opacity="1" id="ProcessInner_RND1897192868"><rect x="0" y="0" width="127" height="77" rx="5" ry="5" visibility="visible" fill="#FFFFFF" stroke="#BBBABA" fill-opacity="1" stroke-width="1" stroke-miterlimit="4" stroke-opacity="1" opacity="1" id="BackgroundProcess_RND1897192868" /><g fill="Black" display="none" visibility="visible" fill-opacity="1" stroke-width="1" stroke-miterlimit="4" stroke-opacity="1" opacity="1" transform="matrix(0.7523217, 0, 0, 0.6551414, 27.52959, 62.1265)" id="btnExpandProcess_RND1897192868"><g fill="Black" clip-path="url(#clipProcessInner)" visibility="visible" fill-opacity="1" stroke-width="1" stroke-miterlimit="4" stroke-opacity="1" opacity="1" transform="matrix(0.1659139, 0, 0, 0.2227319, 106.583, -0.7617227)" id="ExpandProcessInner_RND1897192868"><rect x="0" y="0" width="127" height="77" rx="5" ry="5" visibility="visible" fill="#FFFFFF" stroke="#BBBABA" fill-opacity="1" stroke-width="18.00728" stroke-linejoin="Round" stroke-miterlimit="4" stroke-opacity="1" opacity="1" id="rect3058_RND1897192868" /><rect x="97.29518" y="-50.03258" width="60" height="77" rx="5" ry="5" visibility="visible" fill="url(#colourGradientProcessFoldover)" fill-opacity="1" stroke-width="1" stroke-miterlimit="4" stroke-opacity="1" opacity="1" id="rectFoldover-1_RND1897192868" /></g><path d="M114.5414 11.22973 L118.2261 7.579146 L114.5113 3.950707 L116.1911 2.286395 L121.6314 7.675394 L116.3184 12.93918 L114.5414 11.22973 z" display="inline" visibility="visible" fill="url(#colourGradientProcessFoldover)" fill-opacity="1" stroke-width="1" stroke-miterlimit="4" stroke-opacity="1" opacity="1" id="path3061_RND1897192868" /></g><g fill="Black" display="none" visibility="visible" fill-opacity="1" stroke-width="1" stroke-miterlimit="4" stroke-opacity="1" opacity="1" transform="matrix(0.7517621, 0, 0, 0.6518493, 27.655, 62.11116)" id="btnContractProcess_RND1897192868"><g fill="Black" clip-path="url(#clipProcessInner)" visibility="visible" fill-opacity="1" stroke-width="1" stroke-miterlimit="4" stroke-opacity="1" opacity="1" transform="matrix(0.1659139, 0, 0, 0.2227319, 106.583, -0.7617227)" id="ContractProcessInner_RND1897192868"><rect x="0" y="0" width="127" height="77" rx="5" ry="5" visibility="visible" fill="#FFFFFF" stroke="#BBBABA" fill-opacity="1" stroke-width="18.00728" stroke-linejoin="Round" stroke-miterlimit="4" stroke-opacity="1" opacity="1" id="rect3058-8-4_RND1897192868" /><rect x="97.29518" y="-50.03258" width="60" height="77" rx="5" ry="5" visibility="visible" fill="#414141" fill-opacity="1" stroke-width="1" stroke-miterlimit="4" stroke-opacity="1" opacity="1" id="rect4020_RND1897192868" /></g><path d="M119.9814 11.22973 L116.2967 7.579146 L120.0115 3.950707 L118.3316 2.286395 L112.8914 7.675394 L118.2044 12.93918 L119.9814 11.22973 z" display="inline" visibility="visible" fill="#414141" fill-opacity="1" stroke-width="1" stroke-miterlimit="4" stroke-opacity="1" opacity="1" id="path3061-4-4_RND1897192868" /></g><text text-anchor="middle" x="63" y="33.21814" font-family="Arial" font-size="11px" font-weight="bold" fill="#0294DB" pointer-events="none" visibility="visible" fill-opacity="1" stroke-width="1" stroke-miterlimit="4" stroke-opacity="1" opacity="1" id="text81_RND1897192868"><tspan x="63" y="33.21814" id="tspan3901_RND1897192868" /><tspan x="63" y="45.31814" id="tspan3903_RND1897192868">Test and Accept</tspan><tspan x="63" y="57.41814" id="tspan3905_RND1897192868">Change/Application</tspan><tspan x="63" y="69.51814" id="tspan3907_RND1897192868" /></text><text x="6" y="14" font-family="Arial" font-size="11px" font-weight="bold" fill="#B0B0B4" display="inline" visibility="visible" fill-opacity="1" stroke-width="1" stroke-miterlimit="4" stroke-opacity="1" opacity="1" id="text119-2_RND1897192868"><tspan x="6" y="14" id="tspan6223-4_RND1897192868">PROCESS</tspan></text><rect x="106.7326" y="-57.51394" width="60" height="77" rx="5" ry="5" visibility="visible" fill="url(#colourGradientProcessFoldover)" stroke="#BBBABA" fill-opacity="1" stroke-width="1" stroke-miterlimit="4" stroke-opacity="1" opacity="1" id="rectFoldover_RND1897192868" /></g></g></g></g></svg>